<svg width="64" height="64" viewBox="0 0 64 64" xmlns="http://www.w3.org/2000/svg" fill="none">
  <!-- Background -->
  <rect x="2" y="2" width="60" height="60" rx="10" fill="white"/>

  <!-- Two documents (overlapping) -->
  <rect x="14" y="12" width="22" height="30" rx="3" fill="#ffffff" stroke="#0EA5E9" stroke-width="2.5"/>
  <path d="M34 12l6 6h-6z" fill="#0EA5E9" opacity="0.15"/>
  <rect x="28" y="20" width="22" height="30" rx="3" fill="#ffffff" stroke="#0EA5E9" stroke-width="2.5"/>
  <path d="M50 20l6 6h-6z" fill="#0EA5E9" opacity="0.15"/>

  <!-- Merge arrow (two to one) -->
  <path d="M18 48c6 0 10-3 14-7" stroke="#0EA5E9" stroke-width="3" stroke-linecap="round"/>
  <path d="M46 48c-6 0-10-3-14-7" stroke="#0EA5E9" stroke-width="3" stroke-linecap="round"/>
  <path d="M32 39v10" stroke="#0EA5E9" stroke-width="3" stroke-linecap="round"/>
  <path d="M28 49h8l-4 6z" fill="#0EA5E9"/>

  <!-- Split arrow (one to two) -->
  <path d="M32 26v-8" stroke="#22D3EE" stroke-width="3" stroke-linecap="round"/>
  <path d="M32 18c0 6-5 9-10 9" stroke="#22D3EE" stroke-width="3" stroke-linecap="round"/>
  <path d="M32 18c0 6 5 9 10 9" stroke="#22D3EE" stroke-width="3" stroke-linecap="round"/>
  <path d="M20 26l6 0l-3 5z" fill="#22D3EE"/>
  <path d="M44 26l-6 0l3 5z" fill="#22D3EE"/>

  <!-- Label -->
  <text x="32" y="60" font-family="Arial, Helvetica, sans-serif" font-size="9" fill="#0EA5E9" text-anchor="middle">PDF</text>
</svg>


